HIERARCHY
ROOT Root
{
  OFFSET 0.0 0.0 0.0
  CHANNELS 6 Xposition Yposition Zposition Zrotation Yrotation Xrotation
  JOINT Hips
  {
    OFFSET 0.0 100.0 0.0
    CHANNELS 6 Xposition Yposition Zposition Zrotation Yrotation Xrotation
    JOINT Spine1
    {
      OFFSET 5.003913 -0.037094 -0.013727
      CHANNELS 3 Zrotation Yrotation Xrotation
      JOINT Spine2
      {
        OFFSET 7.125363 -1e-06 0.0
        CHANNELS 3 Zrotation Yrotation Xrotation
        JOINT Chest
        {
          OFFSET 7.594027 1e-06 0.0
          CHANNELS 3 Zrotation Yrotation Xrotation
          JOINT Neck1
          {
            OFFSET 26.313086 -0.460272 -0.181672
            CHANNELS 3 Zrotation Yrotation Xrotation
            JOINT Neck2
            {
              OFFSET 8.045911 0.0 0.0
              CHANNELS 3 Zrotation Yrotation Xrotation
              JOINT Head
              {
                OFFSET 6.432774 0.0 0.0
                CHANNELS 3 Zrotation Yrotation Xrotation
                JOINT HeadEnd
                {
                  OFFSET 16.169773 0.06451 0.00362
                  CHANNELS 3 Zrotation Yrotation Xrotation
                }
                JOINT Jaw
                {
                  OFFSET 0.108741 3.12938 0.002639
                  CHANNELS 3 Zrotation Yrotation Xrotation
                }
                JOINT LeftEye
                {
                  OFFSET 4.45173 8.166359 3.206392
                  CHANNELS 3 Zrotation Yrotation Xrotation
                }
                JOINT RightEye
                {
                  OFFSET 4.436895 8.135758 -3.222429
                  CHANNELS 3 Zrotation Yrotation Xrotation
                }
              }
            }
          }
          JOINT LeftShoulder
          {
            OFFSET 23.218927 5.195579 1.621656
            CHANNELS 3 Zrotation Yrotation Xrotation
            JOINT LeftArm
            {
              OFFSET 15.902118 2e-06 -2e-06
              CHANNELS 3 Zrotation Yrotation Xrotation
              JOINT LeftForeArm
              {
                OFFSET 28.739307 0.0 -1e-06
                CHANNELS 3 Zrotation Yrotation Xrotation
                JOINT LeftHand
                {
                  OFFSET 27.093981 -4e-06 0.0
                  CHANNELS 3 Zrotation Yrotation Xrotation
                  JOINT LeftHandThumb1
                  {
                    OFFSET 2.276781 3.380274 0.83384
                    CHANNELS 3 Zrotation Yrotation Xrotation
                    JOINT LeftHandThumb2
                    {
                      OFFSET 4.705309 -1e-06 -1e-06
                      CHANNELS 3 Zrotation Yrotation Xrotation
                      JOINT LeftHandThumb3
                      {
                        OFFSET 2.798515 0.0 3e-06
                        CHANNELS 3 Zrotation Yrotation Xrotation
                        JOINT LeftHandThumbEnd
                        {
                          OFFSET 3.180793 4e-06 -4e-06
                          CHANNELS 3 Zrotation Yrotation Xrotation
                        }
                      }
                    }
                  }
                  JOINT LeftHandIndex1
                  {
                    OFFSET 3.247786 2.352677 0.137192
                    CHANNELS 3 Zrotation Yrotation Xrotation
                    JOINT LeftHandIndex2
                    {
                      OFFSET 6.367095 1e-06 0.0
                      CHANNELS 3 Zrotation Yrotation Xrotation
                      JOINT LeftHandIndex3
                      {
                        OFFSET 3.662364 0.0 0.0
                        CHANNELS 3 Zrotation Yrotation Xrotation
                        JOINT LeftHandIndex4
                        {
                          OFFSET 2.329242 4e-06 -4e-06
                          CHANNELS 3 Zrotation Yrotation Xrotation
                          JOINT LeftHandIndexEnd
                          {
                            OFFSET 2.767823 1e-06 0.0
                            CHANNELS 3 Zrotation Yrotation Xrotation
                          }
                        }
                      }
                    }
                  }
                  JOINT LeftHandMiddle1
                  {
                    OFFSET 3.163612 0.945023 -0.406112
                    CHANNELS 3 Zrotation Yrotation Xrotation
                    JOINT LeftHandMiddle2
                    {
                      OFFSET 6.276789 3e-06 0.0
                      CHANNELS 3 Zrotation Yrotation Xrotation
                      JOINT LeftHandMiddle3
                      {
                        OFFSET 4.35652 -1e-06 4e-06
                        CHANNELS 3 Zrotation Yrotation Xrotation
                        JOINT LeftHandMiddle4
                        {
                          OFFSET 2.996877 0.0 8e-06
                          CHANNELS 3 Zrotation Yrotation Xrotation
                          JOINT LeftHandMiddleEnd
                          {
                            OFFSET 2.323256 3e-06 -4e-06
                            CHANNELS 3 Zrotation Yrotation Xrotation
                          }
                        }
                      }
                    }
                  }
                  JOINT LeftHandRing1
                  {
                    OFFSET 2.882606 -0.309162 0.107445
                    CHANNELS 3 Zrotation Yrotation Xrotation
                    JOINT LeftHandRing2
                    {
                      OFFSET 6.033198 0.0 4e-06
                      CHANNELS 3 Zrotation Yrotation Xrotation
                      JOINT LeftHandRing3
                      {
                        OFFSET 4.350578 3e-06 0.0
                        CHANNELS 3 Zrotation Yrotation Xrotation
                        JOINT LeftHandRing4
                        {
                          OFFSET 2.651321 2e-06 -7e-06
                          CHANNELS 3 Zrotation Yrotation Xrotation
                          JOINT LeftHandRingEnd
                          {
                            OFFSET 1.937663 1e-06 -4e-06
                            CHANNELS 3 Zrotation Yrotation Xrotation
                          }
                        }
                      }
                    }
                  }
                  JOINT LeftHandPinky1
                  {
                    OFFSET 2.865315 -1.525436 0.575687
                    CHANNELS 3 Zrotation Yrotation Xrotation
                    JOINT LeftHandPinky2
                    {
                      OFFSET 5.54936 1e-06 -8e-06
                      CHANNELS 3 Zrotation Yrotation Xrotation
                      JOINT LeftHandPinky3
                      {
                        OFFSET 3.070974 0.0 -4e-06
                        CHANNELS 3 Zrotation Yrotation Xrotation
                        JOINT LeftHandPinky4
                        {
                          OFFSET 1.549672 1e-06 0.0
                          CHANNELS 3 Zrotation Yrotation Xrotation
                          JOINT LeftHandPinkyEnd
                          {
                            OFFSET 1.952123 0.0 0.0
                            CHANNELS 3 Zrotation Yrotation Xrotation
                          }
                        }
                      }
                    }
                  }
                }
              }
            }
          }
          JOINT RightShoulder
          {
            OFFSET 23.161716 5.296122 -1.380114
            CHANNELS 3 Zrotation Yrotation Xrotation
            JOINT RightArm
            {
              OFFSET -16.027195 -2e-06 1.1e-05
              CHANNELS 3 Zrotation Yrotation Xrotation
              JOINT RightForeArm
              {
                OFFSET -28.736639 4e-06 2e-06
                CHANNELS 3 Zrotation Yrotation Xrotation
                JOINT RightHand
                {
                  OFFSET -27.133619 6e-06 0.0
                  CHANNELS 3 Zrotation Yrotation Xrotation
                  JOINT RightHandThumb1
                  {
                    OFFSET -2.274328 -3.351035 -0.83067
                    CHANNELS 3 Zrotation Yrotation Xrotation
                    JOINT RightHandThumb2
                    {
                      OFFSET -4.703594 -3e-06 2e-06
                      CHANNELS 3 Zrotation Yrotation Xrotation
                      JOINT RightHandThumb3
                      {
                        OFFSET -2.794935 -4e-06 -3e-06
                        CHANNELS 3 Zrotation Yrotation Xrotation
                        JOINT RightHandThumbEnd
                        {
                          OFFSET -3.183852 4e-06 1e-06
                          CHANNELS 3 Zrotation Yrotation Xrotation
                        }
                      }
                    }
                  }
                  JOINT RightHandIndex1
                  {
                    OFFSET -3.253496 -2.33755 -0.127667
                    CHANNELS 3 Zrotation Yrotation Xrotation
                    JOINT RightHandIndex2
                    {
                      OFFSET -6.344434 0.0 0.0
                      CHANNELS 3 Zrotation Yrotation Xrotation
                      JOINT RightHandIndex3
                      {
                        OFFSET -3.654871 0.0 -8e-06
                        CHANNELS 3 Zrotation Yrotation Xrotation
                        JOINT RightHandIndex4
                        {
                          OFFSET -2.327586 -1e-06 0.0
                          CHANNELS 3 Zrotation Yrotation Xrotation
                          JOINT RightHandIndexEnd
                          {
                            OFFSET -2.770001 3e-06 8e-06
                            CHANNELS 3 Zrotation Yrotation Xrotation
                          }
                        }
                      }
                    }
                  }
                  JOINT RightHandMiddle1
                  {
                    OFFSET -3.168223 -0.944764 0.411762
                    CHANNELS 3 Zrotation Yrotation Xrotation
                    JOINT RightHandMiddle2
                    {
                      OFFSET -6.266691 -1e-06 -4e-06
                      CHANNELS 3 Zrotation Yrotation Xrotation
                      JOINT RightHandMiddle3
                      {
                        OFFSET -4.348901 0.0 0.0
                        CHANNELS 3 Zrotation Yrotation Xrotation
                        JOINT RightHandMiddle4
                        {
                          OFFSET -3.00024 2e-06 -4e-06
                          CHANNELS 3 Zrotation Yrotation Xrotation
                          JOINT RightHandMiddleEnd
                          {
                            OFFSET -2.321477 -4e-06 -4e-06
                            CHANNELS 3 Zrotation Yrotation Xrotation
                          }
                        }
                      }
                    }
                  }
                  JOINT RightHandRing1
                  {
                    OFFSET -2.885654 0.293261 -0.119232
                    CHANNELS 3 Zrotation Yrotation Xrotation
                    JOINT RightHandRing2
                    {
                      OFFSET -6.032835 -1e-06 -4e-06
                      CHANNELS 3 Zrotation Yrotation Xrotation
                      JOINT RightHandRing3
                      {
                        OFFSET -4.33881 0.0 -4e-06
                        CHANNELS 3 Zrotation Yrotation Xrotation
                        JOINT RightHandRing4
                        {
                          OFFSET -2.654903 -4e-06 -4e-06
                          CHANNELS 3 Zrotation Yrotation Xrotation
                          JOINT RightHandRingEnd
                          {
                            OFFSET -1.935122 0.0 4e-06
                            CHANNELS 3 Zrotation Yrotation Xrotation
                          }
                        }
                      }
                    }
                  }
                  JOINT RightHandPinky1
                  {
                    OFFSET -2.866241 1.503904 -0.60527
                    CHANNELS 3 Zrotation Yrotation Xrotation
                    JOINT RightHandPinky2
                    {
                      OFFSET -5.553177 -2e-06 0.0
                      CHANNELS 3 Zrotation Yrotation Xrotation
                      JOINT RightHandPinky3
                      {
                        OFFSET -3.062664 -1e-06 -4e-06
                        CHANNELS 3 Zrotation Yrotation Xrotation
                        JOINT RightHandPinky4
                        {
                          OFFSET -1.546529 2e-06 4e-06
                          CHANNELS 3 Zrotation Yrotation Xrotation
                          JOINT RightHandPinkyEnd
                          {
                            OFFSET -1.952341 0.0 -4e-06
                            CHANNELS 3 Zrotation Yrotation Xrotation
                          }
                        }
                      }
                    }
                  }
                }
              }
            }
          }
        }
      }
    }
    JOINT LeftLeg
    {
      OFFSET -8.443107 2.567604 10.043214
      CHANNELS 3 Zrotation Yrotation Xrotation
      JOINT LeftShin
      {
        OFFSET 43.229198 1e-06 -1e-06
        CHANNELS 3 Zrotation Yrotation Xrotation
        JOINT LeftFoot
        {
          OFFSET 42.298611 1e-06 1e-06
          CHANNELS 3 Zrotation Yrotation Xrotation
          JOINT LeftToeBase
          {
            OFFSET 14.165858 1e-06 0.0
            CHANNELS 3 Zrotation Yrotation Xrotation
            JOINT LeftToeEnd
            {
              OFFSET 6.7141 -0.234461 0.0
              CHANNELS 3 Zrotation Yrotation Xrotation
            }
          }
        }
      }
    }
    JOINT RightLeg
    {
      OFFSET -8.303923 2.592729 -10.047278
      CHANNELS 3 Zrotation Yrotation Xrotation
      JOINT RightShin
      {
        OFFSET -43.369682 0.0 1e-06
        CHANNELS 3 Zrotation Yrotation Xrotation
        JOINT RightFoot
        {
          OFFSET -42.260784 4e-06 2e-06
          CHANNELS 3 Zrotation Yrotation Xrotation
          JOINT RightToeBase
          {
            OFFSET -14.222245 -2e-06 -1e-06
            CHANNELS 3 Zrotation Yrotation Xrotation
            JOINT RightToeEnd
            {
              OFFSET -6.660062 0.232574 -2e-06
              CHANNELS 3 Zrotation Yrotation Xrotation
            }
          }
        }
      }
    }
  }
}
MOTION
Frames: 4
Frame Time: 0.03333333333333333
0.0 0.0 0.0 0.0 -0.0 0.0 0.724946 99.928635 0.636457 91.619263 -1.691154 92.633339 -2.749991 -0.879779 -0.085387 -11.870869 -0.694925 -0.203388 8.044832 -2.366318 -3.468489 25.350214 2.657949 2.271595 -2.440144 -1.185714 -1.302735 -10.240256 -0.430592 -1.067257 5e-06 -0.0 -0.0 -0.156083 0.035093 -0.198062 0.082454 0.144712 -0.140395 0.115147 -0.076844 -0.260358 -15.344158 -68.146011 16.956156 2.489201 55.158783 -72.451157 15.626345 -3.86414 -1.839731 1.776612 15.812201 -0.657184 17.636629 -26.322731 52.411186 -19.466663 -14.395598 29.410389 0.0 -8.774821 -2e-06 17.247561 -18.453922 4.67661 -0.609776 -1.795654 -3.889328 -4.80709 -11.046811 -2.93785 3e-06 -20.976021 1e-06 -5.019973 -25.03356 -4.031882 5e-06 -0.0 0.0 -10.634535 -5.686972 -3.565587 10.573275 -17.922951 -3.113901 2e-06 -13.821211 2e-06 -0.501779 -31.181511 -4.027016 -12.539658 -59.432453 7.808191 -13.982716 -7.150198 -2.875042 13.772731 -8.401491 -3.21824 0.347731 -34.211555 0.771656 -0.963029 -17.733372 2.621019 -0.0 1e-06 -0.0 -17.346422 -20.095221 -4.201778 21.757557 -1.638375 3.866427 1e-06 -6.338823 1e-06 -1.697591 -22.591745 -6.194006 0.0 -4e-06 -2e-06 165.698746 -66.732269 16.639938 -6.941655 39.467117 -71.338577 16.673004 0.572214 -0.631834 -4.591984 16.83544 -7.613958 22.182108 -20.375891 49.933308 -16.701809 -16.743526 28.476528 -2e-06 -12.690598 -1e-06 16.555567 -17.03721 2.198574 -0.105919 -1.513856 -4.275882 -5.039041 -5.612868 -2.953554 3e-06 -11.02052 -3e-06 -6.111297 -15.895329 -3.84047 0.0 1e-06 1e-06 -10.283368 -5.680288 -4.341838 11.028294 -11.302401 -2.372632 -1.384269 -14.238578 -6.320118 -0.625441 -26.924183 -3.827601 -4.765679 -50.17141 -4.014535 -13.70852 -7.363475 -3.72094 18.141146 -14.052734 -3.242673 4e-06 -18.787266 -1e-06 -0.429711 -8.456039 2.555502 0.0 -2e-06 -0.0 -15.923532 -20.094481 -5.473585 30.419205 -7.190823 1.735926 2e-06 -8.162924 0.0 -1.861904 -22.861464 -6.167941 0.0 -4e-06 -0.0 -177.435745 -1.648527 -1.515502 6.196529 -0.091245 0.103585 -78.583786 -5.596441 -8.749089 -5.948322 1.520465 2.150952 -0.999998 0.0 -0.0 4.060293 -9.32047 -4.236742 5.486028 0.001083 0.227419 -78.912895 3.69129 -9.522996 -6.188859 0.825255 1.7119 -1.000002 0.0 -0.0 
0.0 0.0 0.0 0.0 -0.0 0.0 0.758922 99.913994 0.623414 91.613403 -1.642505 92.600914 -2.761996 -0.883999 -0.042404 -11.885853 -0.674771 -0.19085 8.041349 -2.357197 -3.459539 25.313717 2.676769 2.249358 -2.437235 -1.176819 -1.41706 -10.313684 -0.446825 -1.142724 6e-06 -0.0 -0.0 -0.159702 0.034054 -0.188573 0.103425 0.143141 -0.126476 0.136324 -0.077222 -0.25499 -15.351664 -68.299438 16.970495 3.295225 55.184593 -71.739838 15.858791 -3.968853 -1.801909 1.825569 15.738264 -0.628041 17.636625 -26.322725 52.411182 -19.466652 -14.395594 29.410381 -1e-06 -8.774819 -2e-06 17.23909 -18.53277 4.663073 -0.609777 -1.795652 -3.889328 -4.807087 -11.046807 -2.93785 5e-06 -20.976011 1e-06 -5.019969 -25.033546 -4.03188 6e-06 -2e-06 0.0 -10.634531 -5.686969 -3.565588 10.573271 -17.922947 -3.113899 3e-06 -13.821205 2e-06 -0.501776 -31.181498 -4.027014 -12.52919 -59.424366 7.795813 -13.982712 -7.150195 -2.875043 13.772727 -8.40149 -3.21824 0.347735 -34.211544 0.771655 -0.963028 -17.733366 2.62102 0.0 -1e-06 1e-06 -17.346415 -20.095213 -4.201782 21.757555 -1.638375 3.866428 2e-06 -6.338822 1e-06 -1.697588 -22.591745 -6.194005 0.0 -3e-06 -3e-06 165.53508 -66.842941 16.761349 -6.400128 39.562828 -70.874481 16.382914 0.669056 -0.616736 -4.55773 16.883684 -8.027926 22.182119 -20.375895 49.933319 -16.701815 -16.743526 28.476534 -4e-06 -12.690601 -1e-06 16.515745 -17.029602 2.221616 -0.105919 -1.513855 -4.275882 -5.039041 -5.61287 -2.953556 5e-06 -11.020523 -2e-06 -6.111295 -15.89533 -3.840472 -1e-06 -0.0 0.0 -10.283369 -5.680286 -4.341839 11.028296 -11.302406 -2.372634 -1.384267 -14.238582 -6.320122 -0.625436 -26.924191 -3.827602 -4.72957 -50.152939 -4.035269 -13.708525 -7.363473 -3.72094 18.141151 -14.052741 -3.242676 8e-06 -18.787271 -2e-06 -0.429711 -8.456045 2.555504 -1e-06 -0.0 0.0 -15.923534 -20.094482 -5.473588 30.41921 -7.190828 1.735925 3e-06 -8.162927 -0.0 -1.861901 -22.861473 -6.167942 -0.0 -3e-06 -0.0 -177.390152 -1.645118 -1.457993 6.237835 -0.091813 0.094573 -78.666817 -5.646501 -8.735665 -5.941782 1.529174 2.150281 -0.999999 -0.0 0.0 4.118111 -9.345725 -4.244691 5.479275 -0.003155 0.237091 -78.932251 3.723846 -9.497511 -6.217694 0.821207 1.70538 -1.000001 -0.0 -0.0 
0.0 0.0 0.0 0.0 -0.0 0.0 0.790622 99.910156 0.616588 91.614586 -1.596119 92.588326 -2.786373 -0.905503 -0.029191 -11.922026 -0.664422 -0.191542 8.052674 -2.330729 -3.425627 25.273584 2.701775 2.225156 -2.423468 -1.187125 -1.475146 -10.350514 -0.495587 -1.253969 6e-06 0.0 0.0 -0.160963 0.032426 -0.17867 0.11906 0.144386 -0.115294 0.149801 -0.081373 -0.246785 -15.283874 -68.383896 16.885469 4.277968 55.128124 -70.68644 16.027145 -4.066949 -1.746664 1.905322 15.619656 -0.662512 17.636631 -26.322725 52.411182 -19.46666 -14.395597 29.410385 0.0 -8.774822 -2e-06 17.208591 -18.625853 4.644997 -0.609776 -1.795654 -3.889326 -4.807089 -11.046811 -2.93785 3e-06 -20.976019 -0.0 -5.019971 -25.033556 -4.031882 6e-06 -0.0 0.0 -10.634535 -5.686971 -3.565586 10.573272 -17.922951 -3.1139 2e-06 -13.821209 1e-06 -0.501779 -31.181498 -4.027017 -12.517409 -59.384689 7.761029 -13.982714 -7.150198 -2.875041 13.77273 -8.401491 -3.218242 0.347732 -34.211555 0.771655 -0.963029 -17.73337 2.621019 0.0 -1e-06 0.0 -17.346422 -20.095221 -4.201779 21.757563 -1.638374 3.866428 1e-06 -6.338823 0.0 -1.697591 -22.591747 -6.194007 1e-06 -3e-06 -3e-06 165.564743 -66.933052 16.735184 -5.867583 39.590179 -70.330887 15.941315 0.728088 -0.582802 -4.659896 16.930853 -8.502241 22.182116 -20.375891 49.933315 -16.701815 -16.743528 28.476532 -3e-06 -12.690601 -2e-06 16.482019 -17.08148 2.206324 -0.105919 -1.513856 -4.275882 -5.039042 -5.612871 -2.953556 4e-06 -11.020525 -1e-06 -6.111298 -15.895334 -3.840471 0.0 -0.0 0.0 -10.283371 -5.680287 -4.341837 11.028296 -11.302406 -2.372634 -1.38427 -14.238581 -6.320121 -0.625437 -26.924191 -3.827603 -4.705984 -50.153305 -4.062604 -13.708528 -7.363473 -3.720939 18.141153 -14.052739 -3.242675 7e-06 -18.78727 -3e-06 -0.429713 -8.456045 2.555503 0.0 -2e-06 1e-06 -15.923538 -20.094482 -5.473583 30.419218 -7.190827 1.735926 3e-06 -8.162927 -1e-06 -1.861903 -22.861469 -6.167943 1e-06 -2e-06 -0.0 -177.365036 -1.637879 -1.360843 6.312453 -0.088408 0.080017 -78.706207 -5.711138 -8.712124 -5.927986 1.530049 2.150197 -1.0 -0.0 -0.0 4.177892 -9.37878 -4.302047 5.473501 -0.004154 0.239861 -78.910683 3.791891 -9.441576 -6.236991 0.822775 1.700663 -1.000001 -0.0 -0.0 
0.0 0.0 0.0 0.0 -0.0 0.0 0.816817 99.914581 0.61701 91.626404 -1.561129 92.577385 -2.823453 -0.942758 -0.052018 -11.968156 -0.676526 -0.201708 8.065206 -2.306896 -3.38144 25.197861 2.755246 2.217638 -2.413766 -1.207486 -1.502315 -10.293886 -0.567691 -1.362886 6e-06 -0.0 0.0 -0.162138 0.031738 -0.176896 0.126389 0.148972 -0.114381 0.155716 -0.086957 -0.244762 -15.269276 -68.418465 16.849195 5.342297 55.050362 -69.535568 16.162252 -4.160059 -1.691634 2.003109 15.484962 -0.729892 17.636627 -26.322721 52.411179 -19.46666 -14.395596 29.410389 -0.0 -8.77482 -2e-06 17.202469 -18.721405 4.620416 -0.609777 -1.795653 -3.889327 -4.807089 -11.046808 -2.937851 4e-06 -20.976015 -1e-06 -5.01997 -25.033552 -4.031883 6e-06 1e-06 0.0 -10.634533 -5.686968 -3.565586 10.573272 -17.922945 -3.1139 3e-06 -13.821205 -0.0 -0.501776 -31.181498 -4.027017 -12.547898 -59.348232 7.767023 -13.982712 -7.150197 -2.875041 13.772727 -8.401489 -3.21824 0.347734 -34.211544 0.771654 -0.963028 -17.733366 2.621019 1e-06 0.0 -1e-06 -17.346418 -20.095215 -4.20178 21.757557 -1.638374 3.866428 1e-06 -6.338822 1e-06 -1.697588 -22.591742 -6.194007 0.0 -4e-06 -3e-06 165.706024 -67.059006 16.635996 -5.380614 39.599728 -69.754951 15.387115 0.734638 -0.538183 -4.891296 17.013727 -8.981732 22.182108 -20.375885 49.933308 -16.701813 -16.743528 28.476528 -2e-06 -12.690598 0.0 16.442814 -17.173412 2.184321 -0.105919 -1.513856 -4.27588 -5.03904 -5.61287 -2.953556 4e-06 -11.020523 -3e-06 -6.111296 -15.89533 -3.840471 -1e-06 -1e-06 -1e-06 -10.283369 -5.680286 -4.341838 11.028292 -11.302404 -2.372633 -1.384269 -14.238579 -6.320121 -0.625437 -26.924187 -3.827603 -4.722155 -50.159756 -4.064332 -13.708524 -7.363475 -3.720939 18.14115 -14.052739 -3.242676 6e-06 -18.78727 -3e-06 -0.429713 -8.456042 2.555502 0.0 -1e-06 -0.0 -15.923534 -20.094482 -5.473584 30.419207 -7.190825 1.735924 2e-06 -8.162925 -1e-06 -1.861901 -22.861467 -6.167943 -1e-06 -3e-06 -0.0 -177.3582 -1.621966 -1.27514 6.40147 -0.084514 0.061079 -78.705246 -5.771729 -8.710368 -5.91895 1.519181 2.151562 -0.999999 0.0 -0.0 4.228932 -9.410499 -4.353111 5.471906 -0.005662 0.229878 -78.874817 3.86044 -9.376809 -6.235008 0.82084 1.697661 -1.000001 -0.0 -0.0 
